<?xml version="1.0" ?><!DOCTYPE svg  PUBLIC '-//W3C//DTD SVG 1.1//EN'  'http://www.w3.org/Graphics/SVG/1.1/DTD/svg11.dtd' [
	<!ENTITY stroke_color "#010101">
	<!ENTITY fill_color "#FFFFFF">
]><svg enable-background="new 0 0 55 55" height="55px" version="1.1" viewBox="0 0 55 55" width="55px" x="0px" xml:space="preserve" xmlns="http://www.w3.org/2000/svg" xmlns:xlink="http://www.w3.org/1999/xlink" y="0px"><g display="block" id="activity-paint">
	<g display="inline">
		<g>
			<g>
				<path d="M49.139,40.188c-1.117-8.426-8.688-17.675-21.995-22.376c-7.425-2.623-16.781-1.292-20.503,6.574      C2.619,32.88,10.02,43.082,20.336,42.997c6.866-0.056,13.744,2.591,17.855,5.165C42.897,51.115,50.104,47.47,49.139,40.188z       M42.398,40.273c-0.58,1.677-2.408,2.573-4.096,1.998c-1.677-0.576-2.574-2.408-1.998-4.09c0.577-1.681,2.406-2.577,4.089-2.002      C42.073,36.755,42.972,38.59,42.398,40.273z" fill="&fill_color;"/>
			</g>
			<g>
				<path d="M49.139,40.188c-1.117-8.426-8.688-17.675-21.995-22.376      c-7.425-2.623-16.781-1.292-20.503,6.574C2.619,32.88,10.02,43.082,20.336,42.997c6.866-0.056,13.744,2.591,17.855,5.165      C42.897,51.115,50.104,47.47,49.139,40.188z M42.398,40.273c-0.58,1.677-2.408,2.573-4.096,1.998      c-1.677-0.576-2.574-2.408-1.998-4.09c0.577-1.681,2.406-2.577,4.089-2.002C42.073,36.755,42.972,38.59,42.398,40.273z" fill="none" stroke="&stroke_color;" stroke-width="3.5"/>
			</g>
		</g>
		<g>
			<path d="M33.104,26.905c0,0,6.854-8.475,8.649-11.625     c2.637-4.629,3.951-9.307,1.935-10.182c-1.482-0.644-5.54,2.84-7.669,6.662c-1.441,2.594-6.557,13.261-6.557,13.261     L33.104,26.905z" fill="&fill_color;" stroke="&stroke_color;" stroke-width="3.5"/>
			<path d="M33.104,26.905l-3.676-1.908c0,0-2.889,1.954-3.99,3.899     c-1.101,1.956-1.143,5.758-3.071,7.748c-1.159,1.193-0.01,0.943-0.01,0.943s6.959-2.412,8.337-4.542     C32.062,30.935,33.104,26.905,33.104,26.905z" fill="&fill_color;" stroke="&stroke_color;" stroke-width="3.5"/>
		</g>
	</g>
</g></svg>

