<svg width="55" height="55" xmlns="http://www.w3.org/2000/svg">
 <g>
  <title>Layer 1</title>
  <!-- Created with SVG-edit - http://svg-edit.googlecode.com/ -->
  <g id="svg_28">
   <g transform="matrix(0.439127 0 0 0.439127 -3.2838 -2.75314)" id="svg_27">
    <title>Layer 1</title>
    <g id="svg_16">
     <g id="svg_17" display="inline" transform="matrix(2.57023 0 0 2.57023 0 3.91096e-8)">
      <path stroke="#010101" stroke-width="3.5" stroke-linecap="round" id="svg_25" fill="none" d="m17.444408,33.985619l-9.573045,14.361l0,0"/>
      <path stroke="#010101" stroke-width="3.5" stroke-linecap="round" id="svg_24" fill="none" d="m25.998402,33.985619l-9.573997,14.361"/>
      <path stroke="#010101" stroke-width="3.5" stroke-linecap="round" id="svg_23" fill="none" d="m34.549908,33.985619l-9.572502,14.361"/>
      <metadata id="svg_22">image/svg+xml</metadata>
      <g id="svg_18">
       <g transform="matrix(0.342138 0 0 0.342138 12.7401 2.45492)" id="svg_19">
        <title>Layer 1</title>
        <g id="svg_20">
         <path fill="#000000" stroke-width="2" stroke-linecap="round" stroke-linejoin="round" stroke-miterlimit="4" stroke-dashoffset="0" id="svg_21" d="m51.254414,2.629902l-1.792694,10.211411l0.007095,0.006805c-2.191406,0.358093 -4.311493,0.931992 -6.336502,1.696288l0,-0.006897l-6.653595,-7.950011l-6.253799,3.612961l3.550903,9.735656l0.013702,0.006897c-1.695313,1.3918 -3.249313,2.951202 -4.640215,4.647293l-0.00679,-0.020798l-9.735748,-3.550888l-3.61296,6.253799l7.949859,6.660599c-0.763,2.0233 -1.331802,4.140289 -1.68924,6.329498l-0.00705,-0.006897l-10.211378,1.792694l0,7.225891l10.211378,1.792709l0.00705,-0.006805c0.357437,2.189209 0.926239,4.306213 1.68924,6.329697l-7.949859,6.660404l3.61296,6.253815l9.735748,-3.551025l0.00679,-0.020676c1.390902,1.695984 2.944902,3.255493 4.640215,4.647095l-0.013702,0.00679l-3.550903,9.735718l6.253799,3.612991l6.653595,-7.949692l0,-0.007004c2.025009,0.764297 4.145096,1.338196 6.336502,1.696289l-0.007095,0.006805l1.792694,10.211411l7.219101,0l1.792709,-10.211411l-0.006912,-0.006805c2.190704,-0.357285 4.311512,-0.9263 6.336498,-1.689285l6.660515,7.94989l6.253693,-3.613007l-3.557808,-9.735703c1.691711,-1.388199 3.244705,-2.9422 4.633499,-4.633392l9.742493,3.55101l3.606216,-6.253815l-7.943001,-6.660603c0.7631,-2.023697 1.338608,-4.140091 1.695992,-6.329498l10.211609,-1.785904l0,-7.225891l-10.211609,-1.792694c-0.357697,-2.18721 -0.933792,-4.301102 -1.695992,-6.322601l7.943001,-6.660599l-3.606216,-6.253601l-9.742493,3.55069c-1.388794,-1.691193 -2.941788,-3.245102 -4.633499,-4.633392l3.557808,-9.735656l-6.253693,-3.612961l-6.660515,7.949813c-2.024986,-0.762893 -4.145794,-1.332 -6.336498,-1.689193l0.006912,-0.006805l-1.792709,-10.211411l-7.219101,0l0,0l0,0zm3.613007,17.582016c14.056896,0 25.456104,11.392502 25.456104,25.449402c0,14.056885 -11.399208,25.449299 -25.456104,25.449299c-14.0569,0 -25.449114,-11.392414 -25.449114,-25.449299c0,-14.0569 11.392214,-25.449402 25.449114,-25.449402z"/>
        </g>
       </g>
      </g>
     </g>
    </g>
    <ellipse stroke="#010101" ry="9.847239" rx="9.847239" id="svg_15" cy="45.86098" cx="81.424158" stroke-linecap="round" stroke-linejoin="bevel" stroke-dasharray="null" stroke-width="3.5" fill="#FFFFFF"/>
   </g>
  </g>
 </g>

</svg>